<?xml version="1.0" encoding="UTF-8" standalone="no"?>
<svg xmlns:dc="http://purl.org/dc/elements/1.1/" xmlns:cc="http://creativecommons.org/ns#" xmlns:rdf="http://www.w3.org/1999/02/22-rdf-syntax-ns#" xmlns:svg="http://www.w3.org/2000/svg" xmlns="http://www.w3.org/2000/svg" xmlns:xlink="http://www.w3.org/1999/xlink" xmlns:sodipodi="http://sodipodi.sourceforge.net/DTD/sodipodi-0.dtd" xmlns:inkscape="http://www.inkscape.org/namespaces/inkscape" width="740" height="550" inkscape:version="0.46" version="1.0" inkscape:output_extension="org.inkscape.output.svg.inkscape">
<defs id="defs4"><filter inkscape:collect="always" id="filter3286"><feGaussianBlur inkscape:collect="always" stdDeviation="5.7344539" id="feGaussianBlur3288" /></filter><filter inkscape:collect="always" id="filter3388"><feGaussianBlur inkscape:collect="always" stdDeviation="0.945555" id="feGaussianBlur3390" /></filter></defs>
<rect style="opacity:1;fill:#000000;fill-opacity:1;stroke:#ffffff;stroke-width:0;stroke-linecap:round;stroke-linejoin:round;stroke-miterlimit:4;stroke-dasharray:none;stroke-dashoffset:0;stroke-opacity:1" id="rect2560" width="740" height="550" x="0" y="0" />
<g inkscape:label="Layer 1" inkscape:groupmode="layer"><image y="50" x="50" height="400" width="640" xlink:href="blanco.png" />
<rect style="opacity:1;fill:none;fill-opacity:1;stroke:#ffffff;stroke-width:1;stroke-linecap:round;stroke-linejoin:round;stroke-miterlimit:4;stroke-dasharray:none;stroke-dashoffset:0;stroke-opacity:1" id="rect2560" width="639" height="399" x="50.5" y="50.5" />
<g id="g3495"><text id="text3368" y="436" x="667" style="font-size:24px;font-style:normal;font-variant:normal;font-weight:bold;font-stretch:normal;text-align:end;line-height:100%;writing-mode:lr-tb;text-anchor:end;fill:#000000;fill-opacity:1;stroke:none;stroke-width:1px;stroke-linecap:butt;stroke-linejoin:miter;stroke-opacity:1;filter:url(#filter3388);font-family:Courier 10 Pitch;-inkscape-font-specification:Courier 10 Pitch Bold" xml:space="preserve"><tspan y="436" x="667" id="tspan3370">GranadaTS</tspan></text><text id="text3332" y="434" x="665" style="font-size:24px;font-style:normal;font-variant:normal;font-weight:bold;font-stretch:normal;text-align:end;line-height:100%;writing-mode:lr-tb;text-anchor:end;fill:#ffffff;fill-opacity:1;stroke:none;stroke-width:1px;stroke-linecap:butt;stroke-linejoin:miter;stroke-opacity:1;font-family:Courier 10 Pitch;-inkscape-font-specification:Courier 10 Pitch Bold" xml:space="preserve"><tspan y="434" x="665" id="tspan3334">GranadaTS</tspan></text></g>
<text xml:space="preserve" style="font-size:21px;font-style:normal;font-variant:normal;font-weight:bold;font-stretch:normal;text-align:end;line-height:100%;writing-mode:lr-tb;text-anchor:end;fill:#ffffff;fill-opacity:1;stroke:none;stroke-width:1px;stroke-linecap:butt;stroke-linejoin:miter;stroke-opacity:1;font-family:Courier 10 Pitch;-inkscape-font-specification:Courier 10 Pitch Bold" x="666.10583" y="482.32404" id="text3340" sodipodi:linespacing="100%"><tspan sodipodi:role="line" id="tspan3342" x="666.10583" y="482.32404">ers</tspan></text>
<text xml:space="preserve" style="font-size:18px;font-style:normal;font-variant:normal;font-weight:bold;font-stretch:normal;text-align:end;line-height:100%;writing-mode:lr-tb;text-anchor:end;fill:#ffffff;fill-opacity:1;stroke:none;stroke-width:1px;stroke-linecap:butt;stroke-linejoin:miter;stroke-opacity:1;font-family:Courier 10 Pitch;-inkscape-font-specification:Courier 10 Pitch Bold" x="666.6261" y="514.37604" id="text3344" sodipodi:linespacing="100%"><tspan sodipodi:role="line" id="tspan3346" x="666.6261" y="514.37604"></tspan><tspan sodipodi:role="line" x="666.6261" y="532.37604" id="tspan3348"></tspan></text>
<text xml:space="preserve" style="font-size:18px;font-style:normal;font-variant:normal;font-weight:bold;font-stretch:normal;text-align:start;line-height:100%;writing-mode:lr-tb;text-anchor:start;fill:#ffffff;fill-opacity:1;stroke:none;stroke-width:1px;stroke-linecap:butt;stroke-linejoin:miter;stroke-opacity:1;font-family:Courier 10 Pitch;-inkscape-font-specification:Courier 10 Pitch Bold" x="70.701996" y="479.88806" id="text3350" sodipodi:linespacing="100%"><tspan sodipodi:role="line" x="70.701996" y="479.88806" id="tspan3354"></tspan><tspan sodipodi:role="line" x="70.701996" y="497.88806" id="tspan3358"></tspan><tspan sodipodi:role="line" x="70.701996" y="515.88806" id="tspan3360"></tspan><tspan sodipodi:role="line" x="70.701996" y="533.88806" id="tspan3362"></tspan></text>
<g id="g2607" transform="translate(-576.99998,44.936449)"><g style="fill:#000000;fill-opacity:1;filter:url(#filter3286)" transform="matrix(0.2491003,0,0,0.2491003,645.37609,337)" id="g3475"><path style="fill:#000000;fill-opacity:1;stroke:none;stroke-width:1px;stroke-linecap:butt;stroke-linejoin:miter;stroke-opacity:1" d="M 253.0625,19.125 C 252.35603,19.118721 251.71507,19.537813 251.4375,20.1875 L 240,45.5 C 239.88324,45.523134 239.76724,45.550168 239.65625,45.59375 L 225.5,50.75 L 231.03125,38.5 C 231.22477,38.093164 231.19629,37.618775 230.9375,37.25 C 230.67871,36.881225 230.22965,36.675112 229.78125,36.71875 C 229.32625,36.761465 228.93083,37.04905 228.75,37.46875 L 222.21875,51.9375 L 208.75,56.84375 L 213.5,46.34375 C 213.69352,45.936914 213.66504,45.462525 213.40625,45.09375 C 213.14746,44.724975 212.6984,44.518862 212.25,44.5625 C 211.795,44.605215 211.39958,44.8928 211.21875,45.3125 L 205.46875,58.03125 L 172.4375,70.0625 L 177.375,59.125 C 177.55623,58.738854 177.54028,58.298153 177.3125,57.9375 C 177.08472,57.576847 176.67655,57.346029 176.25,57.34375 C 175.74914,57.339541 175.29411,57.634691 175.09375,58.09375 L 169.15625,71.25 L 153.96875,76.78125 L 159.1875,65.21875 C 159.38102,64.811914 159.35254,64.337525 159.09375,63.96875 C 158.83496,63.599975 158.3859,63.393862 157.9375,63.4375 C 157.4825,63.480215 157.08708,63.7678 156.90625,64.1875 L 150.6875,77.96875 L 137.28125,82.84375 L 146.84375,61.625 C 147.09944,61.085819 147.06627,60.443533 146.75,59.9375 C 146.43372,59.431467 145.87795,59.131433 145.28125,59.125 C 144.57478,59.118721 143.93382,59.537813 143.65625,60.1875 L 132.59375,84.6875 C 132.24885,84.970062 131.97148,85.360212 131.875,85.8125 C 131.83334,86.007798 131.82746,86.181992 131.84375,86.375 L 120.28125,112 C 119.98957,112.5747 120.03799,113.25234 120.40625,113.78125 C 120.7745,114.31017 121.39104,114.60537 122.03125,114.53125 C 122.67146,114.45713 123.23108,114.03656 123.46875,113.4375 L 134.96875,87.9375 L 148.375,83.0625 L 143.4375,94 C 143.15273,94.62995 143.43255,95.371478 144.0625,95.65625 C 144.69245,95.941022 145.43398,95.6612 145.71875,95.03125 L 151.65625,81.875 L 166.875,76.34375 L 161.625,87.9375 C 161.34023,88.56745 161.62005,89.308978 162.25,89.59375 C 162.87995,89.878522 163.62148,89.5987 163.90625,88.96875 L 170.15625,75.15625 L 184.4375,69.9375 L 184.4375,180.25 L 155.3125,180.25 C 156.94004,178.62241 157.74993,176.62501 157.75,174.28125 L 157.75,152.625 C 157.48952,144.74744 154.5963,138.03391 149.0625,132.5 C 143.5937,126.90111 136.73694,124.00788 128.46875,123.8125 C 120.13539,124.00788 113.19009,126.90111 107.65625,132.5 C 102.18749,138.03391 99.32291,144.91932 99.0625,153.1875 C 99.322913,161.45576 102.21614,168.40107 107.75,174 C 110.45809,176.73997 113.50824,178.81971 116.875,180.25 L 88.5,180.25 C 88.539068,180.21375 88.586316,180.19339 88.625,180.15625 C 90.317648,178.52866 91.15619,176.53127 91.15625,174.1875 C 91.156188,171.90888 90.31765,169.97137 88.625,168.34375 C 86.997338,166.65106 85.02859,165.78127 82.75,165.78125 L 49.15625,165.78125 L 49.15625,121.65625 C 49.156232,119.37768 48.31769,117.40892 46.625,115.78125 C 44.997382,114.08862 43.02863,113.25008 40.75,113.25 C 38.406242,113.25008 36.44009,114.08862 34.8125,115.78125 C 33.249992,117.40892 32.46874,119.37768 32.46875,121.65625 L 32.46875,174.1875 C 32.468742,176.53127 33.24999,178.52866 34.8125,180.15625 C 34.851182,180.19339 34.898435,180.21375 34.9375,180.25 L 18.5625,180.25 L 18.5625,220.84375 L 581.4375,220.84375 L 581.4375,180.25 L 565.09375,180.25 C 566.72129,178.62241 567.53122,176.62501 567.53125,174.28125 L 567.53125,152.625 C 567.27077,144.74744 564.37751,138.03391 558.84375,132.5 C 553.37495,126.90111 546.4869,124.00788 538.21875,123.8125 C 529.88539,124.00788 522.9713,126.90111 517.4375,132.5 C 511.96874,138.03391 509.10413,144.91932 508.84375,153.1875 C 509.10416,161.45576 511.99742,168.40107 517.53125,174 C 520.23935,176.73997 523.26589,178.81971 526.625,180.25 L 477.25,180.25 C 477.32083,180.1832 477.39906,180.13219 477.46875,180.0625 C 479.09631,178.
43491 479.93742,176.46616 479.9375,174.1875 C 479.93745,171.84377 479.0677,169.90627 477.375,168.34375 C 475.74736,166.71617 473.83854,165.90628 471.625,165.90625 C 468.10935,165.90628 465.0989,164.66149 462.625,162.1875 C 460.15102,159.64847 458.93751,156.63806 458.9375,153.1875 C 458.93748,149.73702 460.15099,146.7865 462.625,144.3125 C 465.09893,141.77349 468.10938,140.50005 471.625,140.5 C 475.07549,140.50005 478.02604,141.77349 480.5,144.3125 C 482.97392,146.7865 484.21873,149.73702 484.21875,153.1875 C 484.2187,155.53129 485.02857,157.52868 486.65625,159.15625 C 488.34891,160.71878 490.34627,161.50003 492.625,161.5 C 494.96869,161.50003 496.90622,160.71878 498.46875,159.15625 C 500.0963,157.52868 500.90616,155.53129 500.90625,153.1875 C 500.77598,145.04953 497.91137,138.19276 492.3125,132.59375 C 486.7786,126.92975 479.86451,124.00788 471.53125,123.8125 C 463.26299,124.00788 456.34637,126.90111 450.8125,132.5 C 445.34375,138.03391 442.4792,144.91932 442.21875,153.1875 C 442.47917,161.45576 445.37236,168.40107 450.90625,174 C 453.61435,176.73997 456.66448,178.81971 460.03125,180.25 L 431.75,180.25 C 431.82083,180.1832 431.89906,180.13219 431.96875,180.0625 C 433.59631,178.43491 434.40621,176.46616 434.40625,174.1875 C 434.40621,171.84377 433.56767,169.90627 431.875,168.34375 C 430.24736,166.71617 428.33851,165.90628 426.125,165.90625 C 422.60935,165.90628 419.59893,164.66149 417.125,162.1875 C 414.65102,159.64847 413.40623,156.63806 413.40625,153.1875 L 413.40625,140.5 L 426.03125,140.5 C 428.30986,140.50005 430.24736,139.69016 431.875,138.0625 C 433.56767,136.36985 434.40621,134.37245 434.40625,132.09375 C 434.40621,129.75006 433.56767,127.81257 431.875,126.25 C 430.24736,124.62247 428.30986,123.81257 426.03125,123.8125 L 413.40625,123.8125 L 413.40625,121.65625 C 413.40623,119.31257 412.56769,117.34382 410.875,115.78125 C 409.24738,114.15372 407.30988,113.34383 405.03125,113.34375 C 402.68749,113.34383 400.6901,114.15372 399.0625,115.78125 C 397.5,117.34382 396.71875,119.31257 396.71875,121.65625 L 396.71875,153.78125 C 396.97916,161.65888 399.87239,168.40107 405.40625,174 C 408.11434,176.73997 411.16449,178.81971 414.53125,180.25 L 370.9375,180.25 C 374.3503,178.81839 377.40801,176.74932 380.125,174 C 383.51106,170.57408 385.90081,166.64409 387.3125,162.21875 C 382.76291,169.51541 374.66376,174.375 365.4375,174.375 C 351.2186,174.37497 339.6875,162.84391 339.6875,148.625 C 339.6875,136.86877 347.57455,126.96029 358.34375,123.875 C 358.21843,123.88188 358.09342,123.86685 357.96875,123.875 C 350.32026,124.37478 343.90672,127.25104 338.71875,132.5 C 333.24999,138.03391 330.38541,144.91932 330.125,153.1875 C 330.38541,161.45576 333.24999,168.40107 338.71875,174 C 341.46841,176.74968 344.56401,178.81837 348,180.25 L 319.53125,180.25 C 319.57028,180.21375 319.61757,180.19339 319.65625,180.15625 C 321.3489,178.52866 322.21869,176.53127 322.21875,174.1875 C 322.21869,171.90888 321.3489,169.97137 319.65625,168.34375 C 318.02859,166.65106 316.09109,165.78127 313.8125,165.78125 L 283.4375,165.78125 C 286.23695,162.91669 289.39059,161.50003 292.90625,161.5 C 301.30464,161.17451 308.22131,158.28129 313.625,152.8125 C 319.02859,147.3438 321.89317,140.68755 322.21875,132.875 C 322.21869,130.01048 321.40879,127.81257 319.78125,126.25 C 318.21869,124.62247 316.24994,123.81257 313.90625,123.8125 L 313.8125,123.8125 L 271.8125,123.8125 C 269.46874,123.81257 267.50259,124.65111 265.875,126.34375 C 264.31249,127.97142 263.53124,129.90891 263.53125,132.1875 C 263.53124,134.5313 264.31249,136.5287 265.875,138.15625 C 267.50259,139.7188 269.46874,140.50005 271.8125,140.5 L 302.28125,140.5 C 299.48173,143.36463 296.32809,144.81255 292.8125,144.8125 C 284.41404,145.13807 277.46873,148.05994 272,153.59375 C 266.59635,159.06254 263.79166,165.71617 263.53125,173.59375 C 263.53124,176.32814 264.31249,178.52866 265.875,180.15625 C 265.91368,180.19339 265.96094,180.21375 266,180.25 L 252.9375,180.25 C 252.97653,180.21375 253.02382,180.19339 253.0625,180.15625 C 254.75514,178.52866 255.59369,176.53127 255.59375,174.1875 L 255.59375,142.0625 C 
255.33327,134.18495 252.44005,127.47142 246.90625,121.9375 C 241.43745,116.33862 234.58069,113.44539 226.3125,113.25 C 217.97915,113.44539 211.03384,116.33862 205.5,121.9375 C 200.03125,127.47142 197.16667,134.18495 196.90625,142.0625 L 196.90625,174.1875 C 196.90625,176.53127 197.6875,178.52866 199.25,180.15625 C 199.28868,180.19339 199.3359,180.21375 199.375,180.25 L 190.4375,180.25 L 190.4375,67.9375 C 190.43884,67.872997 190.40904,67.814062 190.40625,67.75 L 203.1875,63.09375 L 197.75,75.125 C 197.46523,75.75495 197.74505,76.496478 198.375,76.78125 C 199.00495,77.066022 199.74648,76.7862 200.03125,76.15625 L 206.46875,61.90625 L 219.9375,57 L 215.28125,67.28125 C 214.99648,67.9112 215.2763,68.652728 215.90625,68.9375 C 216.5362,69.222272 217.27773,68.94245 217.5625,68.3125 L 223.21875,55.8125 L 237.71875,50.53125 L 228.03125,72 C 227.73957,72.574704 227.78799,73.252336 228.15625,73.78125 C 228.52451,74.310164 229.14104,74.605368 229.78125,74.53125 C 230.42146,74.457134 230.98108,74.036562 231.21875,73.4375 L 254.625,21.625 C 254.88069,21.085819 254.84752,20.443533 254.53125,19.9375 C 254.21497,19.431469 253.6592,19.131433 253.0625,19.125 z M 226.3125,129.96875 C 229.76299,129.96881 232.71351,131.21099 235.1875,133.75 C 237.66142,136.22401 238.9062,139.20579 238.90625,142.65625 L 238.90625,144.8125 L 226.21875,144.8125 C 223.87497,144.81255 221.87757,145.65109 220.25,147.34375 C 218.68747,148.9714 217.90622,150.90889 217.90625,153.1875 C 217.90622,155.53129 218.68747,157.52868 220.25,159.15625 C 221.87757,160.71878 223.87497,161.50003 226.21875,161.5 L 238.90625,161.5 L 238.90625,174.1875 C 238.9062,176.53127 239.68745,178.52866 241.25,180.15625 C 241.28868,180.19339 241.3359,180.21375 241.375,180.25 L 210.9375,180.25 C 210.97653,180.21375 211.02382,180.19339 211.0625,180.15625 C 212.75519,178.52866 213.62498,176.53127 213.625,174.1875 L 213.625,142.65625 C 213.62498,139.20579 214.83852,136.22401 217.3125,133.75 C 219.78643,131.21099 222.79685,129.96881 226.3125,129.96875 z M 128.46875,140.5 C 131.91924,140.50005 134.86975,141.77349 137.34375,144.3125 C 139.81766,146.7865 141.06245,149.73702 141.0625,153.1875 L 141.0625,174.28125 C 141.06245,176.62501 141.87235,178.62241 143.5,180.25 L 134.09375,180.25 C 134.16458,180.1832 134.24281,180.13219 134.3125,180.0625 C 135.94006,178.43491 136.74996,176.46616 136.75,174.1875 C 136.74996,171.84377 135.91142,169.90627 134.21875,168.34375 C 132.59111,166.71617 130.68226,165.90628 128.46875,165.90625 C 124.9531,165.90628 121.94268,164.66149 119.46875,162.1875 C 116.99477,159.64847 115.74998,156.63806 115.75,153.1875 C 115.74998,149.73702 116.99477,146.7865 119.46875,144.3125 C 121.94268,141.77349 124.9531,140.50005 128.46875,140.5 z M 538.21875,140.5 C 541.66923,140.50005 544.65097,141.77349 547.125,144.3125 C 549.59891,146.7865 550.81249,149.73702 550.8125,153.1875 L 550.8125,174.28125 C 550.81246,176.62501 551.62232,178.62241 553.25,180.25 L 543.875,180.25 C 543.94594,180.1832 544.02406,180.13219 544.09375,180.0625 C 545.72132,178.43491 546.53118,176.46616 546.53125,174.1875 C 546.53121,171.84377 545.69263,169.90627 544,168.34375 C 542.37235,166.71617 540.43222,165.90628 538.21875,165.90625 C 534.70309,165.90628 531.72396,164.66149 529.25,162.1875 C 526.77602,159.64847 525.53126,156.63806 525.53125,153.1875 C 525.53123,149.73702 526.77605,146.7865 529.25,144.3125 C 531.72393,141.77349 534.70306,140.50005 538.21875,140.5 z M 471.625,144.8125 C 469.28122,144.81255 467.28386,145.65109 465.65625,147.34375 C 464.09373,148.9714 463.31251,150.90889 463.3125,153.1875 C 463.31248,155.53129 464.09376,157.52868 465.65625,159.15625 C 467.28383,160.71878 469.28125,161.50003 471.625,161.5 C 473.90361,161.50003 475.84108,160.71878 477.46875,159.15625 C 479.16142,157.52868 480.03124,155.53129 480.03125,153.1875 C 480.03121,150.90889 479.16139,148.9714 477.46875,147.34375 C 475.84111,145.65109 473.90364,144.81255 471.625,144.8125 z M 234.75,189.3125 C 235.45,189.3125 236.34375,189.81949 236.34375,190.6875 C 236.34375,191.0795 236.19275,191.46475 235.96875,191.96875 L 227.9375,209.125 C 227.
5175,210.049 227.14725,210.59375 226.53125,210.59375 C 225.83125,210.59375 224.9375,210.08675 224.9375,209.21875 C 224.9375,208.82675 225.0885,208.41024 225.3125,207.90625 L 233.3125,190.78125 C 233.7325,189.85725 234.13399,189.3125 234.75,189.3125 z M 251.59375,189.3125 C 252.29375,189.3125 253.1875,189.81949 253.1875,190.6875 C 253.1875,191.0795 253.0365,191.46475 252.8125,191.96875 L 244.78125,209.125 C 244.36125,210.049 243.991,210.59375 243.375,210.59375 C 242.675,210.59375 241.78125,210.08675 241.78125,209.21875 C 241.78125,208.82675 241.93225,208.41024 242.15625,207.90625 L 250.15625,190.78125 C 250.57625,189.85725 250.97774,189.3125 251.59375,189.3125 z M 140.625,191.09375 L 143.1875,191.09375 C 143.8315,191.09375 144,191.29675 144,191.96875 L 144,197.71875 C 144.672,196.59875 145.8415,196 147.4375,196 C 150.2655,196 151.96875,197.627 151.96875,200.875 L 151.96875,205.96875 C 152.05275,205.96875 152.1315,205.96875 152.1875,205.96875 C 153.1675,205.96875 153.65624,206.48876 153.65625,207.46875 C 153.65625,208.61675 153.11675,208.96875 151.96875,208.96875 L 148.5625,208.96875 C 147.4145,208.96875 146.87499,208.61676 146.875,207.46875 C 146.875,206.48875 147.36375,205.96875 148.34375,205.96875 C 148.39975,205.96875 148.4785,205.96875 148.5625,205.96875 L 148.5625,202 C 148.5625,199.956 148.19624,198.90625 146.65625,198.90625 C 145.34025,198.90625 144,200.068 144,202 L 144,205.96875 C 144.084,205.96875 144.16275,205.96875 144.21875,205.96875 C 145.19875,205.96875 145.71875,206.48876 145.71875,207.46875 C 145.71875,208.61675 145.148,208.96875 144,208.96875 L 140.625,208.96875 C 139.477,208.96875 138.90625,208.61676 138.90625,207.46875 C 138.90625,206.48875 139.42625,205.96875 140.40625,205.96875 C 140.46225,205.96875 140.541,205.96875 140.625,205.96875 L 140.625,194.09375 C 140.541,194.09375 140.49025,194.09374 140.40625,194.09375 C 139.42625,194.09375 138.90625,193.57375 138.90625,192.59375 C 138.90625,191.44575 139.477,191.09375 140.625,191.09375 z M 260.90625,191.09375 L 265,191.09375 C 265.504,191.09375 265.8125,191.29225 265.8125,191.65625 L 265.8125,205.96875 L 268.75,205.96875 C 269.898,205.96875 270.46874,206.32076 270.46875,207.46875 C 270.46875,208.61675 269.898,208.96875 268.75,208.96875 L 259.46875,208.96875 C 258.32075,208.96875 257.78126,208.61676 257.78125,207.46875 C 257.78125,206.32075 258.32075,205.96875 259.46875,205.96875 L 262.40625,205.96875 L 262.40625,194.09375 L 260.90625,194.09375 C 259.75825,194.09375 259.18751,193.74175 259.1875,192.59375 C 259.1875,191.44575 259.75824,191.09375 260.90625,191.09375 z M 160.40625,192.1875 C 161.69425,192.1875 162.125,192.73024 162.125,193.90625 L 162.125,197.09375 L 166.28125,197.09375 C 167.42925,197.09375 168.03125,197.44575 168.03125,198.59375 C 168.03125,199.74175 167.42925,200.09375 166.28125,200.09375 L 162.125,200.09375 L 162.125,203.59375 C 162.125,205.38575 162.53225,206.1875 164.15625,206.1875 C 166.08825,206.1875 167.449,204.9375 168.625,204.9375 C 169.353,204.9375 169.96876,205.548 169.96875,206.5 C 169.96875,207.732 167.13799,209.25 163.75,209.25 C 161.818,209.25 160.37776,208.70524 159.59375,207.78125 C 158.78175,206.82925 158.75,205.55826 158.75,203.90625 C 158.75,203.82225 158.75,203.70575 158.75,203.59375 L 158.75,200.09375 L 157.46875,200.09375 C 156.32075,200.09375 155.75,199.74175 155.75,198.59375 C 155.75,197.44575 156.32075,197.09376 157.46875,197.09375 L 158.75,197.09375 L 158.75,193.90625 C 158.75,193.57025 158.75,193.39976 158.75,193.34375 C 158.75,192.78375 159.34224,192.1875 160.40625,192.1875 z M 177.25,192.1875 C 178.538,192.1875 178.96875,192.73024 178.96875,193.90625 L 178.96875,197.09375 L 183.125,197.09375 C 184.273,197.09375 184.875,197.44575 184.875,198.59375 C 184.875,199.74175 184.273,200.09375 183.125,200.09375 L 178.96875,200.09375 L 178.96875,203.59375 C 178.96875,205.38575 179.376,206.1875 181,206.1875 C 182.932,206.1875 184.29275,204.9375 185.46875,204.9375 C 186.19675,204.9375 186.81251,205.548 186.8125,206.5 C 186.8125,207.732 183.98174,209.25 180.59375,209.25 C 178.66175,209.25 177.22151,208.70524 176.4375,207.
78125 C 175.6255,206.82925 175.59375,205.55826 175.59375,203.90625 C 175.59375,203.82225 175.59375,203.70575 175.59375,203.59375 L 175.59375,200.09375 L 174.3125,200.09375 C 173.1645,200.09375 172.59375,199.74175 172.59375,198.59375 C 172.59375,197.44575 173.1645,197.09376 174.3125,197.09375 L 175.59375,197.09375 L 175.59375,193.90625 C 175.59375,193.57025 175.59375,193.39976 175.59375,193.34375 C 175.59375,192.78375 176.18599,192.1875 177.25,192.1875 z M 345.6875,192.1875 C 346.9755,192.1875 347.40624,192.73024 347.40625,193.90625 L 347.40625,197.09375 L 351.5625,197.09375 C 352.7105,197.09375 353.3125,197.44575 353.3125,198.59375 C 353.3125,199.74175 352.71049,200.09375 351.5625,200.09375 L 347.40625,200.09375 L 347.40625,203.59375 C 347.40625,205.38575 347.81351,206.1875 349.4375,206.1875 C 351.3695,206.1875 352.73026,204.9375 353.90625,204.9375 C 354.63425,204.9375 355.25001,205.548 355.25,206.5 C 355.25,207.732 352.41924,209.25 349.03125,209.25 C 347.09925,209.25 345.65901,208.70524 344.875,207.78125 C 344.063,206.82925 344.03125,205.55826 344.03125,203.90625 C 344.03125,203.82225 344.03125,203.70575 344.03125,203.59375 L 344.03125,200.09375 L 342.75,200.09375 C 341.602,200.09375 341.03125,199.74175 341.03125,198.59375 C 341.03125,197.44575 341.602,197.09376 342.75,197.09375 L 344.03125,197.09375 L 344.03125,193.90625 C 344.03125,193.57025 344.03125,193.39976 344.03125,193.34375 C 344.03125,192.78375 344.62349,192.1875 345.6875,192.1875 z M 281.125,195.96875 C 285.241,195.96875 286.53125,197.54625 286.53125,200.90625 L 286.53125,205.96875 C 286.61525,205.96875 286.69725,205.96875 286.78125,205.96875 C 287.76125,205.96875 288.28126,206.52001 288.28125,207.5 C 288.28125,208.592 287.70725,208.96875 286.53125,208.96875 L 285.25,208.96875 C 284.382,208.96875 283.99549,208.73324 283.6875,207.78125 C 282.1755,208.78925 280.45475,209.3125 278.71875,209.3125 C 275.77875,209.3125 274.00001,207.76675 274,205.21875 C 274,202.50275 276.23949,200.90624 280.1875,200.90625 C 281.1395,200.90625 282.15799,200.99149 283.25,201.1875 C 283.25,201.1035 283.24999,201.02149 283.25,200.9375 C 283.25,199.2855 282.41501,198.40625 280.875,198.40625 C 279.139,198.40625 277.85049,199.75 276.5625,199.75 C 275.5825,199.75 275.09375,199.187 275.09375,198.375 C 275.09375,196.947 277.31701,195.96875 281.125,195.96875 z M 297.96875,195.96875 C 302.08475,195.96875 303.375,197.54625 303.375,200.90625 L 303.375,205.96875 C 303.459,205.96875 303.541,205.96875 303.625,205.96875 C 304.605,205.96875 305.12501,206.52001 305.125,207.5 C 305.125,208.592 304.551,208.96875 303.375,208.96875 L 302.09375,208.96875 C 301.22575,208.96875 300.83924,208.73324 300.53125,207.78125 C 299.01925,208.78925 297.2985,209.3125 295.5625,209.3125 C 292.6225,209.3125 290.84376,207.76675 290.84375,205.21875 C 290.84375,202.50275 293.08324,200.90624 297.03125,200.90625 C 297.98325,200.90625 299.00174,200.99149 300.09375,201.1875 C 300.09375,201.1035 300.09374,201.02149 300.09375,200.9375 C 300.09375,199.2855 299.25876,198.40625 297.71875,198.40625 C 295.98275,198.40625 294.69424,199.75 293.40625,199.75 C 292.42625,199.75 291.9375,199.187 291.9375,198.375 C 291.9375,196.947 294.16076,195.96875 297.96875,195.96875 z M 382.1875,195.96875 C 386.3035,195.96875 387.59375,197.54625 387.59375,200.90625 L 387.59375,205.96875 C 387.67775,205.96875 387.75975,205.96875 387.84375,205.96875 C 388.82375,205.96875 389.34376,206.52001 389.34375,207.5 C 389.34375,208.592 388.76975,208.96875 387.59375,208.96875 L 386.3125,208.96875 C 385.4445,208.96875 385.05799,208.73324 384.75,207.78125 C 383.238,208.78925 381.51725,209.3125 379.78125,209.3125 C 376.84125,209.3125 375.06251,207.76675 375.0625,205.21875 C 375.0625,202.50275 377.30199,200.90624 381.25,200.90625 C 382.202,200.90625 383.22049,200.99149 384.3125,201.1875 C 384.3125,201.1035 384.31249,201.02149 384.3125,200.9375 C 384.3125,199.2855 383.47751,198.40625 381.9375,198.40625 C 380.2015,198.40625 378.91299,199.75 377.625,199.75 C 376.645,199.75 376.15625,199.187 376.15625,198.375 C 376.15625,196.947 378.37951,195.96875 382.1875,195.96875 z M 
437.25,195.96875 C 439.098,195.96875 440.15626,196.90275 440.15625,198.21875 C 440.15625,199.28275 439.33877,200.03125 438.21875,200.03125 C 437.09875,200.03125 436.34975,199.15625 435.59375,199.15625 C 434.72575,199.15625 433.50549,199.9665 431.9375,201.5625 L 431.9375,205.96875 L 435.15625,205.96875 C 436.30425,205.96875 436.87501,206.32076 436.875,207.46875 C 436.875,208.61675 436.30424,208.96875 435.15625,208.96875 L 427.53125,208.96875 C 426.38325,208.96875 425.78124,208.61676 425.78125,207.46875 C 425.78125,206.32075 426.38325,205.96875 427.53125,205.96875 L 428.5625,205.96875 L 428.5625,199.34375 L 427.96875,199.34375 C 426.82075,199.34375 426.28126,198.9605 426.28125,197.8125 C 426.28125,196.6645 426.82075,196.34375 427.96875,196.34375 L 430.875,196.34375 C 431.379,196.34375 431.65624,196.57351 431.65625,196.9375 L 431.65625,198.9375 C 433.50425,196.9495 435.094,195.96875 437.25,195.96875 z M 197.71875,196 C 201.49875,196 204.18751,198.72851 204.1875,202.3125 C 204.1875,206.1485 201.459,208.875 197.875,208.875 C 196.419,208.875 195.10824,208.47151 194.15625,207.6875 L 194.15625,211.40625 L 195.875,211.40625 C 197.023,211.40625 197.59374,211.75825 197.59375,212.90625 C 197.59375,214.05425 197.023,214.40626 195.875,214.40625 L 190.09375,214.40625 C 188.94575,214.40625 188.375,214.05425 188.375,212.90625 C 188.375,211.75825 188.94576,211.40624 190.09375,211.40625 L 190.90625,211.40625 L 190.90625,199.34375 C 190.82225,199.34375 190.77149,199.34375 190.6875,199.34375 C 189.7075,199.34375 189.1875,198.7925 189.1875,197.8125 C 189.1875,196.6645 189.75825,196.34375 190.90625,196.34375 L 193,196.34375 C 193.532,196.34375 193.78124,196.54226 193.78125,196.90625 L 193.78125,197.875 C 194.70525,196.643 196.06674,196 197.71875,196 z M 448.4375,196 C 450.0615,196 451.29475,196.50174 452.21875,197.59375 L 452.21875,196.90625 C 452.21875,196.54225 452.46801,196.34375 453,196.34375 L 455.21875,196.34375 C 456.36675,196.34375 456.93751,196.66449 456.9375,197.8125 C 456.9375,198.7925 456.44874,199.34375 455.46875,199.34375 C 455.38475,199.34375 455.30274,199.34375 455.21875,199.34375 L 455.21875,208.75 C 455.21875,212.726 453.191,214.46876 448.375,214.46875 C 445.435,214.46875 444.06251,213.885 444.0625,212.625 C 444.0625,211.757 444.61375,211.15626 445.59375,211.15625 C 446.15375,211.15625 447.11299,211.40624 448.625,211.40625 C 451.145,211.40625 452.03125,210.63524 452.03125,208.03125 C 452.03125,207.83525 451.99999,207.63026 452,207.40625 C 450.768,208.13425 449.55625,208.5 448.15625,208.5 C 444.48825,208.5 441.9375,205.959 441.9375,202.375 C 441.9375,198.70701 444.6575,196 448.4375,196 z M 331.5,196.03125 C 336.036,196.03125 338.93749,198.90751 338.9375,202.6875 C 338.9375,206.4675 336.03599,209.3125 331.5,209.3125 C 326.96401,209.3125 324.03125,206.4675 324.03125,202.6875 C 324.03125,198.90751 326.964,196.03125 331.5,196.03125 z M 365.4375,196.03125 C 369.5815,196.03125 372.28126,198.87051 372.28125,202.0625 C 372.28125,203.2665 371.70926,203.46875 370.28125,203.46875 L 361.46875,203.46875 C 361.94475,205.51275 363.29451,206.46875 365.5625,206.46875 C 368.5025,206.46875 369.8045,204.8125 370.8125,204.8125 C 371.5405,204.8125 372.06251,205.3755 372.0625,206.1875 C 372.0625,207.7555 369.44151,209.3125 365.4375,209.3125 C 360.9295,209.3125 358,206.4675 358,202.6875 C 358,198.90751 360.90152,196.03125 365.4375,196.03125 z M 415.71875,196.03125 C 420.25475,196.03125 423.15624,198.90751 423.15625,202.6875 C 423.15625,206.4675 420.25474,209.3125 415.71875,209.3125 C 411.18276,209.3125 408.25,206.4675 408.25,202.6875 C 408.25,198.90751 411.18275,196.03125 415.71875,196.03125 z M 310.4375,196.34375 L 318.5,196.34375 C 319.62,196.34375 320.15626,196.85074 320.15625,197.71875 C 320.15625,198.27875 319.9135,198.746 319.4375,199.25 L 312.9375,206.21875 L 317.40625,206.21875 L 317.5,205.28125 C 317.584,204.16125 317.80774,203.5625 318.84375,203.5625 C 319.99175,203.5625 320.25001,204.13325 320.25,205.28125 L 320.25,207.28125 C 320.25,208.79325 319.97224,208.96875 318.65625,208.96875 L 310.1875,208.96875 C 309.0955,208.96875 308.53126,208.
48976 308.53125,207.59375 C 308.53125,207.08975 308.76751,206.54175 309.1875,206.09375 L 315.84375,199.09375 L 311.625,199.09375 L 311.625,199.71875 C 311.625,200.89475 311.17399,201.46875 310.25,201.46875 C 309.102,201.46875 308.87501,200.86675 308.875,199.71875 L 308.875,198 C 308.875,196.488 309.12149,196.34375 310.4375,196.34375 z M 213.59375,196.75 C 215.32975,196.75 216.4375,197.79725 216.4375,199.28125 C 216.4375,200.79325 215.30176,201.875 213.59375,201.875 C 211.88575,201.875 210.74999,200.76525 210.75,199.28125 C 210.75,197.79725 211.85776,196.75001 213.59375,196.75 z M 365.125,198.65625 C 363.137,198.65625 361.94474,199.5205 361.46875,201.3125 L 368.84375,201.3125 C 368.53575,199.6045 367.16899,198.65625 365.125,198.65625 z M 197.3125,198.90625 C 195.5205,198.90625 194.21874,200.36875 194.21875,202.46875 C 194.21875,204.56875 195.52049,206.03125 197.3125,206.03125 C 199.0765,206.03125 200.40626,204.56875 200.40625,202.46875 C 200.40625,200.36875 199.10449,198.90625 197.3125,198.90625 z M 331.5,198.90625 C 329.344,198.90625 327.84374,200.50025 327.84375,202.65625 C 327.84375,204.84025 329.37199,206.4375 331.5,206.4375 C 333.656,206.4375 335.15626,204.81225 335.15625,202.65625 C 335.15625,200.50025 333.68399,198.90625 331.5,198.90625 z M 415.71875,198.90625 C 413.56275,198.90625 412.06249,200.50025 412.0625,202.65625 C 412.0625,204.84025 413.59074,206.4375 415.71875,206.4375 C 417.87475,206.4375 419.37501,204.81225 419.375,202.65625 C 419.375,200.50025 417.90274,198.90625 415.71875,198.90625 z M 448.8125,198.90625 C 447.0205,198.90625 445.71875,200.32775 445.71875,202.34375 C 445.71875,204.33175 447.0205,205.75 448.8125,205.75 C 450.6045,205.75 451.9375,204.33175 451.9375,202.34375 C 451.9375,200.32775 450.6045,198.90625 448.8125,198.90625 z M 280.9375,203.03125 C 278.8655,203.03125 277.68749,203.7465 277.6875,205.0625 C 277.6875,205.9865 278.4405,206.5625 279.8125,206.5625 C 281.0725,206.5625 282.18599,206.1935 283.25,205.4375 L 283.25,203.34375 C 282.382,203.14775 281.60951,203.03125 280.9375,203.03125 z M 297.78125,203.03125 C 295.70925,203.03125 294.53124,203.7465 294.53125,205.0625 C 294.53125,205.9865 295.28425,206.5625 296.65625,206.5625 C 297.91625,206.5625 299.02974,206.1935 300.09375,205.4375 L 300.09375,203.34375 C 299.22575,203.14775 298.45326,203.03125 297.78125,203.03125 z M 382,203.03125 C 379.928,203.03125 378.74999,203.7465 378.75,205.0625 C 378.75,205.9865 379.503,206.5625 380.875,206.5625 C 382.135,206.5625 383.24849,206.1935 384.3125,205.4375 L 384.3125,203.34375 C 383.4445,203.14775 382.67201,203.03125 382,203.03125 z M 213.5625,204.03125 C 215.2985,204.03125 216.46875,205.0785 216.46875,206.5625 C 216.46875,208.0745 215.27051,209.15625 213.5625,209.15625 C 211.8545,209.15625 210.74999,208.0465 210.75,206.5625 C 210.75,205.0785 211.85451,204.03126 213.5625,204.03125 z M 398.875,204.03125 C 400.611,204.03125 401.75,205.08175 401.75,206.59375 C 401.75,208.10575 400.61099,209.15625 398.875,209.15625 C 397.167,209.15625 396.03126,208.07775 396.03125,206.59375 C 396.03125,205.10975 397.16699,204.03126 398.875,204.03125 z" id="path3477" /></g>
<g style="fill:#ffffff;fill-opacity:1" transform="matrix(0.2491003,0,0,0.2491003,642.37606,334)" id="g3492"><path style="fill:#ffffff;fill-opacity:1;stroke:none;stroke-width:1px;stroke-linecap:butt;stroke-linejoin:miter;stroke-opacity:1" d="M 253.0625,19.125 C 252.35603,19.118721 251.71507,19.537813 251.4375,20.1875 L 240,45.5 C 239.88324,45.523134 239.76724,45.550168 239.65625,45.59375 L 225.5,50.75 L 231.03125,38.5 C 231.22477,38.093164 231.19629,37.618775 230.9375,37.25 C 230.67871,36.881225 230.22965,36.675112 229.78125,36.71875 C 229.32625,36.761465 228.93083,37.04905 228.75,37.46875 L 222.21875,51.9375 L 208.75,56.84375 L 213.5,46.34375 C 213.69352,45.936914 213.66504,45.462525 213.40625,45.09375 C 213.14746,44.724975 212.6984,44.518862 212.25,44.5625 C 211.795,44.605215 211.39958,44.8928 211.21875,45.3125 L 205.46875,58.03125 L 172.4375,70.0625 L 177.375,59.125 C 177.55623,58.738854 177.54028,58.298153 177.3125,57.9375 C 177.08472,57.576847 176.67655,57.346029 176.25,57.34375 C 175.74914,57.339541 175.29411,57.634691 175.09375,58.09375 L 169.15625,71.25 L 153.96875,76.78125 L 159.1875,65.21875 C 159.38102,64.811914 159.35254,64.337525 159.09375,63.96875 C 158.83496,63.599975 158.3859,63.393862 157.9375,63.4375 C 157.4825,63.480215 157.08708,63.7678 156.90625,64.1875 L 150.6875,77.96875 L 137.28125,82.84375 L 146.84375,61.625 C 147.09944,61.085819 147.06627,60.443533 146.75,59.9375 C 146.43372,59.431467 145.87795,59.131433 145.28125,59.125 C 144.57478,59.118721 143.93382,59.537813 143.65625,60.1875 L 132.59375,84.6875 C 132.24885,84.970062 131.97148,85.360212 131.875,85.8125 C 131.83334,86.007798 131.82746,86.181992 131.84375,86.375 L 120.28125,112 C 119.98957,112.5747 120.03799,113.25234 120.40625,113.78125 C 120.7745,114.31017 121.39104,114.60537 122.03125,114.53125 C 122.67146,114.45713 123.23108,114.03656 123.46875,113.4375 L 134.96875,87.9375 L 148.375,83.0625 L 143.4375,94 C 143.15273,94.62995 143.43255,95.371478 144.0625,95.65625 C 144.69245,95.941022 145.43398,95.6612 145.71875,95.03125 L 151.65625,81.875 L 166.875,76.34375 L 161.625,87.9375 C 161.34023,88.56745 161.62005,89.308978 162.25,89.59375 C 162.87995,89.878522 163.62148,89.5987 163.90625,88.96875 L 170.15625,75.15625 L 184.4375,69.9375 L 184.4375,180.25 L 155.3125,180.25 C 156.94004,178.62241 157.74993,176.62501 157.75,174.28125 L 157.75,152.625 C 157.48952,144.74744 154.5963,138.03391 149.0625,132.5 C 143.5937,126.90111 136.73694,124.00788 128.46875,123.8125 C 120.13539,124.00788 113.19009,126.90111 107.65625,132.5 C 102.18749,138.03391 99.32291,144.91932 99.0625,153.1875 C 99.322913,161.45576 102.21614,168.40107 107.75,174 C 110.45809,176.73997 113.50824,178.81971 116.875,180.25 L 88.5,180.25 C 88.539068,180.21375 88.586316,180.19339 88.625,180.15625 C 90.317648,178.52866 91.15619,176.53127 91.15625,174.1875 C 91.156188,171.90888 90.31765,169.97137 88.625,168.34375 C 86.997338,166.65106 85.02859,165.78127 82.75,165.78125 L 49.15625,165.78125 L 49.15625,121.65625 C 49.156232,119.37768 48.31769,117.40892 46.625,115.78125 C 44.997382,114.08862 43.02863,113.25008 40.75,113.25 C 38.406242,113.25008 36.44009,114.08862 34.8125,115.78125 C 33.249992,117.40892 32.46874,119.37768 32.46875,121.65625 L 32.46875,174.1875 C 32.468742,176.53127 33.24999,178.52866 34.8125,180.15625 C 34.851182,180.19339 34.898435,180.21375 34.9375,180.25 L 18.5625,180.25 L 18.5625,220.84375 L 581.4375,220.84375 L 581.4375,180.25 L 565.09375,180.25 C 566.72129,178.62241 567.53122,176.62501 567.53125,174.28125 L 567.53125,152.625 C 567.27077,144.74744 564.37751,138.03391 558.84375,132.5 C 553.37495,126.90111 546.4869,124.00788 538.21875,123.8125 C 529.88539,124.00788 522.9713,126.90111 517.4375,132.5 C 511.96874,138.03391 509.10413,144.91932 508.84375,153.1875 C 509.10416,161.45576 511.99742,168.40107 517.53125,174 C 520.23935,176.73997 523.26589,178.81971 526.625,180.25 L 477.25,180.25 C 477.32083,180.1832 477.39906,180.13219 477.46875,180.0625 C 479.09631,178.43491 479.93742,176.46616 479.9375,174.1875 C 479.93745,171.84377 479.0677,169.90627 
477.375,168.34375 C 475.74736,166.71617 473.83854,165.90628 471.625,165.90625 C 468.10935,165.90628 465.0989,164.66149 462.625,162.1875 C 460.15102,159.64847 458.93751,156.63806 458.9375,153.1875 C 458.93748,149.73702 460.15099,146.7865 462.625,144.3125 C 465.09893,141.77349 468.10938,140.50005 471.625,140.5 C 475.07549,140.50005 478.02604,141.77349 480.5,144.3125 C 482.97392,146.7865 484.21873,149.73702 484.21875,153.1875 C 484.2187,155.53129 485.02857,157.52868 486.65625,159.15625 C 488.34891,160.71878 490.34627,161.50003 492.625,161.5 C 494.96869,161.50003 496.90622,160.71878 498.46875,159.15625 C 500.0963,157.52868 500.90616,155.53129 500.90625,153.1875 C 500.77598,145.04953 497.91137,138.19276 492.3125,132.59375 C 486.7786,126.92975 479.86451,124.00788 471.53125,123.8125 C 463.26299,124.00788 456.34637,126.90111 450.8125,132.5 C 445.34375,138.03391 442.4792,144.91932 442.21875,153.1875 C 442.47917,161.45576 445.37236,168.40107 450.90625,174 C 453.61435,176.73997 456.66448,178.81971 460.03125,180.25 L 431.75,180.25 C 431.82083,180.1832 431.89906,180.13219 431.96875,180.0625 C 433.59631,178.43491 434.40621,176.46616 434.40625,174.1875 C 434.40621,171.84377 433.56767,169.90627 431.875,168.34375 C 430.24736,166.71617 428.33851,165.90628 426.125,165.90625 C 422.60935,165.90628 419.59893,164.66149 417.125,162.1875 C 414.65102,159.64847 413.40623,156.63806 413.40625,153.1875 L 413.40625,140.5 L 426.03125,140.5 C 428.30986,140.50005 430.24736,139.69016 431.875,138.0625 C 433.56767,136.36985 434.40621,134.37245 434.40625,132.09375 C 434.40621,129.75006 433.56767,127.81257 431.875,126.25 C 430.24736,124.62247 428.30986,123.81257 426.03125,123.8125 L 413.40625,123.8125 L 413.40625,121.65625 C 413.40623,119.31257 412.56769,117.34382 410.875,115.78125 C 409.24738,114.15372 407.30988,113.34383 405.03125,113.34375 C 402.68749,113.34383 400.6901,114.15372 399.0625,115.78125 C 397.5,117.34382 396.71875,119.31257 396.71875,121.65625 L 396.71875,153.78125 C 396.97916,161.65888 399.87239,168.40107 405.40625,174 C 408.11434,176.73997 411.16449,178.81971 414.53125,180.25 L 370.9375,180.25 C 374.3503,178.81839 377.40801,176.74932 380.125,174 C 383.51106,170.57408 385.90081,166.64409 387.3125,162.21875 C 382.76291,169.51541 374.66376,174.375 365.4375,174.375 C 351.2186,174.37497 339.6875,162.84391 339.6875,148.625 C 339.6875,136.86877 347.57455,126.96029 358.34375,123.875 C 358.21843,123.88188 358.09342,123.86685 357.96875,123.875 C 350.32026,124.37478 343.90672,127.25104 338.71875,132.5 C 333.24999,138.03391 330.38541,144.91932 330.125,153.1875 C 330.38541,161.45576 333.24999,168.40107 338.71875,174 C 341.46841,176.74968 344.56401,178.81837 348,180.25 L 319.53125,180.25 C 319.57028,180.21375 319.61757,180.19339 319.65625,180.15625 C 321.3489,178.52866 322.21869,176.53127 322.21875,174.1875 C 322.21869,171.90888 321.3489,169.97137 319.65625,168.34375 C 318.02859,166.65106 316.09109,165.78127 313.8125,165.78125 L 283.4375,165.78125 C 286.23695,162.91669 289.39059,161.50003 292.90625,161.5 C 301.30464,161.17451 308.22131,158.28129 313.625,152.8125 C 319.02859,147.3438 321.89317,140.68755 322.21875,132.875 C 322.21869,130.01048 321.40879,127.81257 319.78125,126.25 C 318.21869,124.62247 316.24994,123.81257 313.90625,123.8125 L 313.8125,123.8125 L 271.8125,123.8125 C 269.46874,123.81257 267.50259,124.65111 265.875,126.34375 C 264.31249,127.97142 263.53124,129.90891 263.53125,132.1875 C 263.53124,134.5313 264.31249,136.5287 265.875,138.15625 C 267.50259,139.7188 269.46874,140.50005 271.8125,140.5 L 302.28125,140.5 C 299.48173,143.36463 296.32809,144.81255 292.8125,144.8125 C 284.41404,145.13807 277.46873,148.05994 272,153.59375 C 266.59635,159.06254 263.79166,165.71617 263.53125,173.59375 C 263.53124,176.32814 264.31249,178.52866 265.875,180.15625 C 265.91368,180.19339 265.96094,180.21375 266,180.25 L 252.9375,180.25 C 252.97653,180.21375 253.02382,180.19339 253.0625,180.15625 C 254.75514,178.52866 255.59369,176.53127 255.59375,174.1875 L 255.59375,142.0625 C 255.33327,134.18495 252.44005,127.47142 246.90625,121.9375 C 241.43745,116.33862 234.
58069,113.44539 226.3125,113.25 C 217.97915,113.44539 211.03384,116.33862 205.5,121.9375 C 200.03125,127.47142 197.16667,134.18495 196.90625,142.0625 L 196.90625,174.1875 C 196.90625,176.53127 197.6875,178.52866 199.25,180.15625 C 199.28868,180.19339 199.3359,180.21375 199.375,180.25 L 190.4375,180.25 L 190.4375,67.9375 C 190.43884,67.872997 190.40904,67.814062 190.40625,67.75 L 203.1875,63.09375 L 197.75,75.125 C 197.46523,75.75495 197.74505,76.496478 198.375,76.78125 C 199.00495,77.066022 199.74648,76.7862 200.03125,76.15625 L 206.46875,61.90625 L 219.9375,57 L 215.28125,67.28125 C 214.99648,67.9112 215.2763,68.652728 215.90625,68.9375 C 216.5362,69.222272 217.27773,68.94245 217.5625,68.3125 L 223.21875,55.8125 L 237.71875,50.53125 L 228.03125,72 C 227.73957,72.574704 227.78799,73.252336 228.15625,73.78125 C 228.52451,74.310164 229.14104,74.605368 229.78125,74.53125 C 230.42146,74.457134 230.98108,74.036562 231.21875,73.4375 L 254.625,21.625 C 254.88069,21.085819 254.84752,20.443533 254.53125,19.9375 C 254.21497,19.431469 253.6592,19.131433 253.0625,19.125 z M 226.3125,129.96875 C 229.76299,129.96881 232.71351,131.21099 235.1875,133.75 C 237.66142,136.22401 238.9062,139.20579 238.90625,142.65625 L 238.90625,144.8125 L 226.21875,144.8125 C 223.87497,144.81255 221.87757,145.65109 220.25,147.34375 C 218.68747,148.9714 217.90622,150.90889 217.90625,153.1875 C 217.90622,155.53129 218.68747,157.52868 220.25,159.15625 C 221.87757,160.71878 223.87497,161.50003 226.21875,161.5 L 238.90625,161.5 L 238.90625,174.1875 C 238.9062,176.53127 239.68745,178.52866 241.25,180.15625 C 241.28868,180.19339 241.3359,180.21375 241.375,180.25 L 210.9375,180.25 C 210.97653,180.21375 211.02382,180.19339 211.0625,180.15625 C 212.75519,178.52866 213.62498,176.53127 213.625,174.1875 L 213.625,142.65625 C 213.62498,139.20579 214.83852,136.22401 217.3125,133.75 C 219.78643,131.21099 222.79685,129.96881 226.3125,129.96875 z M 128.46875,140.5 C 131.91924,140.50005 134.86975,141.77349 137.34375,144.3125 C 139.81766,146.7865 141.06245,149.73702 141.0625,153.1875 L 141.0625,174.28125 C 141.06245,176.62501 141.87235,178.62241 143.5,180.25 L 134.09375,180.25 C 134.16458,180.1832 134.24281,180.13219 134.3125,180.0625 C 135.94006,178.43491 136.74996,176.46616 136.75,174.1875 C 136.74996,171.84377 135.91142,169.90627 134.21875,168.34375 C 132.59111,166.71617 130.68226,165.90628 128.46875,165.90625 C 124.9531,165.90628 121.94268,164.66149 119.46875,162.1875 C 116.99477,159.64847 115.74998,156.63806 115.75,153.1875 C 115.74998,149.73702 116.99477,146.7865 119.46875,144.3125 C 121.94268,141.77349 124.9531,140.50005 128.46875,140.5 z M 538.21875,140.5 C 541.66923,140.50005 544.65097,141.77349 547.125,144.3125 C 549.59891,146.7865 550.81249,149.73702 550.8125,153.1875 L 550.8125,174.28125 C 550.81246,176.62501 551.62232,178.62241 553.25,180.25 L 543.875,180.25 C 543.94594,180.1832 544.02406,180.13219 544.09375,180.0625 C 545.72132,178.43491 546.53118,176.46616 546.53125,174.1875 C 546.53121,171.84377 545.69263,169.90627 544,168.34375 C 542.37235,166.71617 540.43222,165.90628 538.21875,165.90625 C 534.70309,165.90628 531.72396,164.66149 529.25,162.1875 C 526.77602,159.64847 525.53126,156.63806 525.53125,153.1875 C 525.53123,149.73702 526.77605,146.7865 529.25,144.3125 C 531.72393,141.77349 534.70306,140.50005 538.21875,140.5 z M 471.625,144.8125 C 469.28122,144.81255 467.28386,145.65109 465.65625,147.34375 C 464.09373,148.9714 463.31251,150.90889 463.3125,153.1875 C 463.31248,155.53129 464.09376,157.52868 465.65625,159.15625 C 467.28383,160.71878 469.28125,161.50003 471.625,161.5 C 473.90361,161.50003 475.84108,160.71878 477.46875,159.15625 C 479.16142,157.52868 480.03124,155.53129 480.03125,153.1875 C 480.03121,150.90889 479.16139,148.9714 477.46875,147.34375 C 475.84111,145.65109 473.90364,144.81255 471.625,144.8125 z M 234.75,189.3125 C 235.45,189.3125 236.34375,189.81949 236.34375,190.6875 C 236.34375,191.0795 236.19275,191.46475 235.96875,191.96875 L 227.9375,209.125 C 227.5175,210.049 227.14725,210.59375 226.53125,210.59375 C 225.83125,210.59375 224.9375,210.
08675 224.9375,209.21875 C 224.9375,208.82675 225.0885,208.41024 225.3125,207.90625 L 233.3125,190.78125 C 233.7325,189.85725 234.13399,189.3125 234.75,189.3125 z M 251.59375,189.3125 C 252.29375,189.3125 253.1875,189.81949 253.1875,190.6875 C 253.1875,191.0795 253.0365,191.46475 252.8125,191.96875 L 244.78125,209.125 C 244.36125,210.049 243.991,210.59375 243.375,210.59375 C 242.675,210.59375 241.78125,210.08675 241.78125,209.21875 C 241.78125,208.82675 241.93225,208.41024 242.15625,207.90625 L 250.15625,190.78125 C 250.57625,189.85725 250.97774,189.3125 251.59375,189.3125 z M 140.625,191.09375 L 143.1875,191.09375 C 143.8315,191.09375 144,191.29675 144,191.96875 L 144,197.71875 C 144.672,196.59875 145.8415,196 147.4375,196 C 150.2655,196 151.96875,197.627 151.96875,200.875 L 151.96875,205.96875 C 152.05275,205.96875 152.1315,205.96875 152.1875,205.96875 C 153.1675,205.96875 153.65624,206.48876 153.65625,207.46875 C 153.65625,208.61675 153.11675,208.96875 151.96875,208.96875 L 148.5625,208.96875 C 147.4145,208.96875 146.87499,208.61676 146.875,207.46875 C 146.875,206.48875 147.36375,205.96875 148.34375,205.96875 C 148.39975,205.96875 148.4785,205.96875 148.5625,205.96875 L 148.5625,202 C 148.5625,199.956 148.19624,198.90625 146.65625,198.90625 C 145.34025,198.90625 144,200.068 144,202 L 144,205.96875 C 144.084,205.96875 144.16275,205.96875 144.21875,205.96875 C 145.19875,205.96875 145.71875,206.48876 145.71875,207.46875 C 145.71875,208.61675 145.148,208.96875 144,208.96875 L 140.625,208.96875 C 139.477,208.96875 138.90625,208.61676 138.90625,207.46875 C 138.90625,206.48875 139.42625,205.96875 140.40625,205.96875 C 140.46225,205.96875 140.541,205.96875 140.625,205.96875 L 140.625,194.09375 C 140.541,194.09375 140.49025,194.09374 140.40625,194.09375 C 139.42625,194.09375 138.90625,193.57375 138.90625,192.59375 C 138.90625,191.44575 139.477,191.09375 140.625,191.09375 z M 260.90625,191.09375 L 265,191.09375 C 265.504,191.09375 265.8125,191.29225 265.8125,191.65625 L 265.8125,205.96875 L 268.75,205.96875 C 269.898,205.96875 270.46874,206.32076 270.46875,207.46875 C 270.46875,208.61675 269.898,208.96875 268.75,208.96875 L 259.46875,208.96875 C 258.32075,208.96875 257.78126,208.61676 257.78125,207.46875 C 257.78125,206.32075 258.32075,205.96875 259.46875,205.96875 L 262.40625,205.96875 L 262.40625,194.09375 L 260.90625,194.09375 C 259.75825,194.09375 259.18751,193.74175 259.1875,192.59375 C 259.1875,191.44575 259.75824,191.09375 260.90625,191.09375 z M 160.40625,192.1875 C 161.69425,192.1875 162.125,192.73024 162.125,193.90625 L 162.125,197.09375 L 166.28125,197.09375 C 167.42925,197.09375 168.03125,197.44575 168.03125,198.59375 C 168.03125,199.74175 167.42925,200.09375 166.28125,200.09375 L 162.125,200.09375 L 162.125,203.59375 C 162.125,205.38575 162.53225,206.1875 164.15625,206.1875 C 166.08825,206.1875 167.449,204.9375 168.625,204.9375 C 169.353,204.9375 169.96876,205.548 169.96875,206.5 C 169.96875,207.732 167.13799,209.25 163.75,209.25 C 161.818,209.25 160.37776,208.70524 159.59375,207.78125 C 158.78175,206.82925 158.75,205.55826 158.75,203.90625 C 158.75,203.82225 158.75,203.70575 158.75,203.59375 L 158.75,200.09375 L 157.46875,200.09375 C 156.32075,200.09375 155.75,199.74175 155.75,198.59375 C 155.75,197.44575 156.32075,197.09376 157.46875,197.09375 L 158.75,197.09375 L 158.75,193.90625 C 158.75,193.57025 158.75,193.39976 158.75,193.34375 C 158.75,192.78375 159.34224,192.1875 160.40625,192.1875 z M 177.25,192.1875 C 178.538,192.1875 178.96875,192.73024 178.96875,193.90625 L 178.96875,197.09375 L 183.125,197.09375 C 184.273,197.09375 184.875,197.44575 184.875,198.59375 C 184.875,199.74175 184.273,200.09375 183.125,200.09375 L 178.96875,200.09375 L 178.96875,203.59375 C 178.96875,205.38575 179.376,206.1875 181,206.1875 C 182.932,206.1875 184.29275,204.9375 185.46875,204.9375 C 186.19675,204.9375 186.81251,205.548 186.8125,206.5 C 186.8125,207.732 183.98174,209.25 180.59375,209.25 C 178.66175,209.25 177.22151,208.70524 176.4375,207.78125 C 175.6255,206.82925 175.59375,205.55826 175.59375,203.90625 C 175.59375,203.82225 
175.59375,203.70575 175.59375,203.59375 L 175.59375,200.09375 L 174.3125,200.09375 C 173.1645,200.09375 172.59375,199.74175 172.59375,198.59375 C 172.59375,197.44575 173.1645,197.09376 174.3125,197.09375 L 175.59375,197.09375 L 175.59375,193.90625 C 175.59375,193.57025 175.59375,193.39976 175.59375,193.34375 C 175.59375,192.78375 176.18599,192.1875 177.25,192.1875 z M 345.6875,192.1875 C 346.9755,192.1875 347.40624,192.73024 347.40625,193.90625 L 347.40625,197.09375 L 351.5625,197.09375 C 352.7105,197.09375 353.3125,197.44575 353.3125,198.59375 C 353.3125,199.74175 352.71049,200.09375 351.5625,200.09375 L 347.40625,200.09375 L 347.40625,203.59375 C 347.40625,205.38575 347.81351,206.1875 349.4375,206.1875 C 351.3695,206.1875 352.73026,204.9375 353.90625,204.9375 C 354.63425,204.9375 355.25001,205.548 355.25,206.5 C 355.25,207.732 352.41924,209.25 349.03125,209.25 C 347.09925,209.25 345.65901,208.70524 344.875,207.78125 C 344.063,206.82925 344.03125,205.55826 344.03125,203.90625 C 344.03125,203.82225 344.03125,203.70575 344.03125,203.59375 L 344.03125,200.09375 L 342.75,200.09375 C 341.602,200.09375 341.03125,199.74175 341.03125,198.59375 C 341.03125,197.44575 341.602,197.09376 342.75,197.09375 L 344.03125,197.09375 L 344.03125,193.90625 C 344.03125,193.57025 344.03125,193.39976 344.03125,193.34375 C 344.03125,192.78375 344.62349,192.1875 345.6875,192.1875 z M 281.125,195.96875 C 285.241,195.96875 286.53125,197.54625 286.53125,200.90625 L 286.53125,205.96875 C 286.61525,205.96875 286.69725,205.96875 286.78125,205.96875 C 287.76125,205.96875 288.28126,206.52001 288.28125,207.5 C 288.28125,208.592 287.70725,208.96875 286.53125,208.96875 L 285.25,208.96875 C 284.382,208.96875 283.99549,208.73324 283.6875,207.78125 C 282.1755,208.78925 280.45475,209.3125 278.71875,209.3125 C 275.77875,209.3125 274.00001,207.76675 274,205.21875 C 274,202.50275 276.23949,200.90624 280.1875,200.90625 C 281.1395,200.90625 282.15799,200.99149 283.25,201.1875 C 283.25,201.1035 283.24999,201.02149 283.25,200.9375 C 283.25,199.2855 282.41501,198.40625 280.875,198.40625 C 279.139,198.40625 277.85049,199.75 276.5625,199.75 C 275.5825,199.75 275.09375,199.187 275.09375,198.375 C 275.09375,196.947 277.31701,195.96875 281.125,195.96875 z M 297.96875,195.96875 C 302.08475,195.96875 303.375,197.54625 303.375,200.90625 L 303.375,205.96875 C 303.459,205.96875 303.541,205.96875 303.625,205.96875 C 304.605,205.96875 305.12501,206.52001 305.125,207.5 C 305.125,208.592 304.551,208.96875 303.375,208.96875 L 302.09375,208.96875 C 301.22575,208.96875 300.83924,208.73324 300.53125,207.78125 C 299.01925,208.78925 297.2985,209.3125 295.5625,209.3125 C 292.6225,209.3125 290.84376,207.76675 290.84375,205.21875 C 290.84375,202.50275 293.08324,200.90624 297.03125,200.90625 C 297.98325,200.90625 299.00174,200.99149 300.09375,201.1875 C 300.09375,201.1035 300.09374,201.02149 300.09375,200.9375 C 300.09375,199.2855 299.25876,198.40625 297.71875,198.40625 C 295.98275,198.40625 294.69424,199.75 293.40625,199.75 C 292.42625,199.75 291.9375,199.187 291.9375,198.375 C 291.9375,196.947 294.16076,195.96875 297.96875,195.96875 z M 382.1875,195.96875 C 386.3035,195.96875 387.59375,197.54625 387.59375,200.90625 L 387.59375,205.96875 C 387.67775,205.96875 387.75975,205.96875 387.84375,205.96875 C 388.82375,205.96875 389.34376,206.52001 389.34375,207.5 C 389.34375,208.592 388.76975,208.96875 387.59375,208.96875 L 386.3125,208.96875 C 385.4445,208.96875 385.05799,208.73324 384.75,207.78125 C 383.238,208.78925 381.51725,209.3125 379.78125,209.3125 C 376.84125,209.3125 375.06251,207.76675 375.0625,205.21875 C 375.0625,202.50275 377.30199,200.90624 381.25,200.90625 C 382.202,200.90625 383.22049,200.99149 384.3125,201.1875 C 384.3125,201.1035 384.31249,201.02149 384.3125,200.9375 C 384.3125,199.2855 383.47751,198.40625 381.9375,198.40625 C 380.2015,198.40625 378.91299,199.75 377.625,199.75 C 376.645,199.75 376.15625,199.187 376.15625,198.375 C 376.15625,196.947 378.37951,195.96875 382.1875,195.96875 z M 437.25,195.96875 C 439.098,195.96875 440.15626,196.90275 440.15625,198.21875 C 440.15625,
199.28275 439.33877,200.03125 438.21875,200.03125 C 437.09875,200.03125 436.34975,199.15625 435.59375,199.15625 C 434.72575,199.15625 433.50549,199.9665 431.9375,201.5625 L 431.9375,205.96875 L 435.15625,205.96875 C 436.30425,205.96875 436.87501,206.32076 436.875,207.46875 C 436.875,208.61675 436.30424,208.96875 435.15625,208.96875 L 427.53125,208.96875 C 426.38325,208.96875 425.78124,208.61676 425.78125,207.46875 C 425.78125,206.32075 426.38325,205.96875 427.53125,205.96875 L 428.5625,205.96875 L 428.5625,199.34375 L 427.96875,199.34375 C 426.82075,199.34375 426.28126,198.9605 426.28125,197.8125 C 426.28125,196.6645 426.82075,196.34375 427.96875,196.34375 L 430.875,196.34375 C 431.379,196.34375 431.65624,196.57351 431.65625,196.9375 L 431.65625,198.9375 C 433.50425,196.9495 435.094,195.96875 437.25,195.96875 z M 197.71875,196 C 201.49875,196 204.18751,198.72851 204.1875,202.3125 C 204.1875,206.1485 201.459,208.875 197.875,208.875 C 196.419,208.875 195.10824,208.47151 194.15625,207.6875 L 194.15625,211.40625 L 195.875,211.40625 C 197.023,211.40625 197.59374,211.75825 197.59375,212.90625 C 197.59375,214.05425 197.023,214.40626 195.875,214.40625 L 190.09375,214.40625 C 188.94575,214.40625 188.375,214.05425 188.375,212.90625 C 188.375,211.75825 188.94576,211.40624 190.09375,211.40625 L 190.90625,211.40625 L 190.90625,199.34375 C 190.82225,199.34375 190.77149,199.34375 190.6875,199.34375 C 189.7075,199.34375 189.1875,198.7925 189.1875,197.8125 C 189.1875,196.6645 189.75825,196.34375 190.90625,196.34375 L 193,196.34375 C 193.532,196.34375 193.78124,196.54226 193.78125,196.90625 L 193.78125,197.875 C 194.70525,196.643 196.06674,196 197.71875,196 z M 448.4375,196 C 450.0615,196 451.29475,196.50174 452.21875,197.59375 L 452.21875,196.90625 C 452.21875,196.54225 452.46801,196.34375 453,196.34375 L 455.21875,196.34375 C 456.36675,196.34375 456.93751,196.66449 456.9375,197.8125 C 456.9375,198.7925 456.44874,199.34375 455.46875,199.34375 C 455.38475,199.34375 455.30274,199.34375 455.21875,199.34375 L 455.21875,208.75 C 455.21875,212.726 453.191,214.46876 448.375,214.46875 C 445.435,214.46875 444.06251,213.885 444.0625,212.625 C 444.0625,211.757 444.61375,211.15626 445.59375,211.15625 C 446.15375,211.15625 447.11299,211.40624 448.625,211.40625 C 451.145,211.40625 452.03125,210.63524 452.03125,208.03125 C 452.03125,207.83525 451.99999,207.63026 452,207.40625 C 450.768,208.13425 449.55625,208.5 448.15625,208.5 C 444.48825,208.5 441.9375,205.959 441.9375,202.375 C 441.9375,198.70701 444.6575,196 448.4375,196 z M 331.5,196.03125 C 336.036,196.03125 338.93749,198.90751 338.9375,202.6875 C 338.9375,206.4675 336.03599,209.3125 331.5,209.3125 C 326.96401,209.3125 324.03125,206.4675 324.03125,202.6875 C 324.03125,198.90751 326.964,196.03125 331.5,196.03125 z M 365.4375,196.03125 C 369.5815,196.03125 372.28126,198.87051 372.28125,202.0625 C 372.28125,203.2665 371.70926,203.46875 370.28125,203.46875 L 361.46875,203.46875 C 361.94475,205.51275 363.29451,206.46875 365.5625,206.46875 C 368.5025,206.46875 369.8045,204.8125 370.8125,204.8125 C 371.5405,204.8125 372.06251,205.3755 372.0625,206.1875 C 372.0625,207.7555 369.44151,209.3125 365.4375,209.3125 C 360.9295,209.3125 358,206.4675 358,202.6875 C 358,198.90751 360.90152,196.03125 365.4375,196.03125 z M 415.71875,196.03125 C 420.25475,196.03125 423.15624,198.90751 423.15625,202.6875 C 423.15625,206.4675 420.25474,209.3125 415.71875,209.3125 C 411.18276,209.3125 408.25,206.4675 408.25,202.6875 C 408.25,198.90751 411.18275,196.03125 415.71875,196.03125 z M 310.4375,196.34375 L 318.5,196.34375 C 319.62,196.34375 320.15626,196.85074 320.15625,197.71875 C 320.15625,198.27875 319.9135,198.746 319.4375,199.25 L 312.9375,206.21875 L 317.40625,206.21875 L 317.5,205.28125 C 317.584,204.16125 317.80774,203.5625 318.84375,203.5625 C 319.99175,203.5625 320.25001,204.13325 320.25,205.28125 L 320.25,207.28125 C 320.25,208.79325 319.97224,208.96875 318.65625,208.96875 L 310.1875,208.96875 C 309.0955,208.96875 308.53126,208.48976 308.53125,207.59375 C 308.53125,207.08975 308.76751,206.54175 309.1875,206.09375 L 
315.84375,199.09375 L 311.625,199.09375 L 311.625,199.71875 C 311.625,200.89475 311.17399,201.46875 310.25,201.46875 C 309.102,201.46875 308.87501,200.86675 308.875,199.71875 L 308.875,198 C 308.875,196.488 309.12149,196.34375 310.4375,196.34375 z M 213.59375,196.75 C 215.32975,196.75 216.4375,197.79725 216.4375,199.28125 C 216.4375,200.79325 215.30176,201.875 213.59375,201.875 C 211.88575,201.875 210.74999,200.76525 210.75,199.28125 C 210.75,197.79725 211.85776,196.75001 213.59375,196.75 z M 365.125,198.65625 C 363.137,198.65625 361.94474,199.5205 361.46875,201.3125 L 368.84375,201.3125 C 368.53575,199.6045 367.16899,198.65625 365.125,198.65625 z M 197.3125,198.90625 C 195.5205,198.90625 194.21874,200.36875 194.21875,202.46875 C 194.21875,204.56875 195.52049,206.03125 197.3125,206.03125 C 199.0765,206.03125 200.40626,204.56875 200.40625,202.46875 C 200.40625,200.36875 199.10449,198.90625 197.3125,198.90625 z M 331.5,198.90625 C 329.344,198.90625 327.84374,200.50025 327.84375,202.65625 C 327.84375,204.84025 329.37199,206.4375 331.5,206.4375 C 333.656,206.4375 335.15626,204.81225 335.15625,202.65625 C 335.15625,200.50025 333.68399,198.90625 331.5,198.90625 z M 415.71875,198.90625 C 413.56275,198.90625 412.06249,200.50025 412.0625,202.65625 C 412.0625,204.84025 413.59074,206.4375 415.71875,206.4375 C 417.87475,206.4375 419.37501,204.81225 419.375,202.65625 C 419.375,200.50025 417.90274,198.90625 415.71875,198.90625 z M 448.8125,198.90625 C 447.0205,198.90625 445.71875,200.32775 445.71875,202.34375 C 445.71875,204.33175 447.0205,205.75 448.8125,205.75 C 450.6045,205.75 451.9375,204.33175 451.9375,202.34375 C 451.9375,200.32775 450.6045,198.90625 448.8125,198.90625 z M 280.9375,203.03125 C 278.8655,203.03125 277.68749,203.7465 277.6875,205.0625 C 277.6875,205.9865 278.4405,206.5625 279.8125,206.5625 C 281.0725,206.5625 282.18599,206.1935 283.25,205.4375 L 283.25,203.34375 C 282.382,203.14775 281.60951,203.03125 280.9375,203.03125 z M 297.78125,203.03125 C 295.70925,203.03125 294.53124,203.7465 294.53125,205.0625 C 294.53125,205.9865 295.28425,206.5625 296.65625,206.5625 C 297.91625,206.5625 299.02974,206.1935 300.09375,205.4375 L 300.09375,203.34375 C 299.22575,203.14775 298.45326,203.03125 297.78125,203.03125 z M 382,203.03125 C 379.928,203.03125 378.74999,203.7465 378.75,205.0625 C 378.75,205.9865 379.503,206.5625 380.875,206.5625 C 382.135,206.5625 383.24849,206.1935 384.3125,205.4375 L 384.3125,203.34375 C 383.4445,203.14775 382.67201,203.03125 382,203.03125 z M 213.5625,204.03125 C 215.2985,204.03125 216.46875,205.0785 216.46875,206.5625 C 216.46875,208.0745 215.27051,209.15625 213.5625,209.15625 C 211.8545,209.15625 210.74999,208.0465 210.75,206.5625 C 210.75,205.0785 211.85451,204.03126 213.5625,204.03125 z M 398.875,204.03125 C 400.611,204.03125 401.75,205.08175 401.75,206.59375 C 401.75,208.10575 400.61099,209.15625 398.875,209.15625 C 397.167,209.15625 396.03126,208.07775 396.03125,206.59375 C 396.03125,205.10975 397.16699,204.03126 398.875,204.03125 z" id="path3480" /></g>
</g></g></svg>
